<svg version="1.1" xmlns="http://www.w3.org/2000/svg" xmlns:xlink="http://www.w3.org/1999/xlink" width="576" height="268.83871" viewBox="744,247.58065,576,268.83871"><g fill="none" fill-rule="nonzero" stroke="none" stroke-width="1" stroke-linecap="butt" stroke-linejoin="miter" stroke-miterlimit="10" stroke-dasharray="" stroke-dashoffset="0" font-family="none" font-weight="none" font-size="none" text-anchor="none" style="mix-blend-mode: normal"><g id="Layer_1"><path d="M744,381.90323v134.51613l38.32258,-38.32258h537.67742v-96.19355z" fill="#ffffff"/><path d="M1320,381.90323v-134.32258l-38.32258,38.32258h-537.67742v96z" fill="#00a6de"/><g fill="#ffffff"><rect x="400.6" y="180.61667" transform="scale(1.93548,1.93548)" width="2.8" height="2.8"/><rect x="400.6" y="176.81667" transform="scale(1.93548,1.93548)" width="2.8" height="2.8"/><rect x="400.6" y="163.61667" transform="scale(1.93548,1.93548)" width="2.8" height="2.8"/><rect x="400.6" y="159.81667" transform="scale(1.93548,1.93548)" width="2.8" height="2.8"/><rect x="404.4" y="182.41667" transform="scale(1.93548,1.93548)" width="2.8" height="2.8"/><rect x="404.4" y="159.81667" transform="scale(1.93548,1.93548)" width="2.8" height="2.8"/><rect x="408.1" y="182.41667" transform="scale(1.93548,1.93548)" width="2.8" height="2.8"/><rect x="408.1" y="159.81667" transform="scale(1.93548,1.93548)" width="2.8" height="2.8"/><rect x="411.9" y="182.41667" transform="scale(1.93548,1.93548)" width="2.8" height="2.8"/><rect x="411.9" y="159.81667" transform="scale(1.93548,1.93548)" width="2.8" height="2.8"/><rect x="415.6" y="180.61667" transform="scale(1.93548,1.93548)" width="2.8" height="2.8"/><rect x="415.6" y="176.81667" transform="scale(1.93548,1.93548)" width="2.8" height="2.8"/><rect x="415.6" y="173.01667" transform="scale(1.93548,1.93548)" width="2.8" height="2.8"/><rect x="415.6" y="169.21667" transform="scale(1.93548,1.93548)" width="2.8" height="2.8"/><rect x="415.6" y="165.51667" transform="scale(1.93548,1.93548)" width="2.8" height="2.8"/><rect x="415.6" y="161.71667" transform="scale(1.93548,1.93548)" width="2.8" height="2.8"/><rect x="423.1" y="178.71667" transform="scale(1.93548,1.93548)" width="2.8" height="2.8"/><rect x="423.1" y="174.91667" transform="scale(1.93548,1.93548)" width="2.8" height="2.8"/><rect x="423.1" y="171.11667" transform="scale(1.93548,1.93548)" width="2.8" height="2.8"/><rect x="423.1" y="167.41667" transform="scale(1.93548,1.93548)" width="2.8" height="2.8"/><rect x="423.1" y="163.61667" transform="scale(1.93548,1.93548)" width="2.8" height="2.8"/><rect x="423.1" y="159.81667" transform="scale(1.93548,1.93548)" width="2.8" height="2.8"/><rect x="426.9" y="182.41667" transform="scale(1.93548,1.93548)" width="2.8" height="2.8"/><rect x="430.6" y="182.41667" transform="scale(1.93548,1.93548)" width="2.8" height="2.8"/><rect x="434.4" y="182.41667" transform="scale(1.93548,1.93548)" width="2.8" height="2.8"/><rect x="438.1" y="178.71667" transform="scale(1.93548,1.93548)" width="2.8" height="2.8"/><rect x="438.1" y="174.91667" transform="scale(1.93548,1.93548)" width="2.8" height="2.8"/><rect x="438.1" y="171.11667" transform="scale(1.93548,1.93548)" width="2.8" height="2.8"/><rect x="438.1" y="167.41667" transform="scale(1.93548,1.93548)" width="2.8" height="2.8"/><rect x="438.1" y="163.61667" transform="scale(1.93548,1.93548)" width="2.8" height="2.8"/><rect x="438.1" y="159.81667" transform="scale(1.93548,1.93548)" width="2.8" height="2.8"/><rect x="445.6" y="180.61667" transform="scale(1.93548,1.93548)" width="2.8" height="2.8"/><rect x="445.6" y="176.81667" transform="scale(1.93548,1.93548)" width="2.8" height="2.8"/><rect x="445.6" y="173.01667" transform="scale(1.93548,1.93548)" width="2.8" height="2.8"/><rect x="445.6" y="169.21667" transform="scale(1.93548,1.93548)" width="2.8" height="2.8"/><rect x="445.6" y="165.51667" transform="scale(1.93548,1.93548)" width="2.8" height="2.8"/><rect x="445.6" y="161.71667" transform="scale(1.93548,1.93548)" width="2.8" height="2.8"/><rect x="449.4" y="182.41667" transform="scale(1.93548,1.93548)" width="2.8" height="2.8"/><rect x="449.4" y="159.81667" transform="scale(1.93548,1.93548)" width="2.8" height="2.8"/><rect x="453.1" y="182.41667" transform="scale(1.93548,1.93548)" width="2.8" height="2.8"/><rect x="453.1" y="173.01667" transform="scale(1.93548,1.93548)" width="2.8" height="2.8"/><rect x="453.1" y="159.81667" transform="scale(1.93548,1.93548)" width="2.8" height="2.8"/><rect x="456.9" y="182.41667" transform="scale(1.93548,1.93548)" width="2.8" height="2.8"/><rect x="456.9" y="173.01667" transform="scale(1.93548,1.93548)" width="2.8" height="2.8"/><rect x="456.9" y="159.81667" transform="scale(1.93548,1.93548)" width="2.8" height="2.8"/><rect x="460.6" y="180.61667" transform="scale(1.93548,1.93548)" width="2.8" height="2.8"/><rect x="460.6" y="176.81667" transform="scale(1.93548,1.93548)" width="2.8" height="2.8"/><rect x="460.6" y="173.01667" transform="scale(1.93548,1.93548)" width="2.8" height="2.8"/><rect x="460.6" y="161.71667" transform="scale(1.93548,1.93548)" width="2.8" height="2.8"/><rect x="468.1" y="180.61667" transform="scale(1.93548,1.93548)" width="2.8" height="2.8"/><rect x="468.1" y="176.81667" transform="scale(1.93548,1.93548)" width="2.8" height="2.8"/><rect x="468.1" y="173.01667" transform="scale(1.93548,1.93548)" width="2.8" height="2.8"/><rect x="468.1" y="169.21667" transform="scale(1.93548,1.93548)" width="2.8" height="2.8"/><rect x="468.1" y="165.51667" transform="scale(1.93548,1.93548)" width="2.8" height="2.8"/><rect x="468.1" y="161.71667" transform="scale(1.93548,1.93548)" width="2.8" height="2.8"/><rect x="471.8" y="182.41667" transform="scale(1.93548,1.93548)" width="2.8" height="2.8"/><rect x="471.8" y="171.11667" transform="scale(1.93548,1.93548)" width="2.8" height="2.8"/><rect x="471.8" y="159.81667" transform="scale(1.93548,1.93548)" width="2.8" height="2.8"/><rect x="475.6" y="182.41667" transform="scale(1.93548,1.93548)" width="2.8" height="2.8"/><rect x="475.6" y="171.11667" transform="scale(1.93548,1.93548)" width="2.8" height="2.8"/><rect x="475.6" y="159.81667" transform="scale(1.93548,1.93548)" width="2.8" height="2.8"/><rect x="479.3" y="182.41667" transform="scale(1.93548,1.93548)" width="2.8" height="2.8"/><rect x="479.3" y="171.11667" transform="scale(1.93548,1.93548)" width="2.8" height="2.8"/><rect x="479.3" y="159.81667" transform="scale(1.93548,1.93548)" width="2.8" height="2.8"/><rect x="483.1" y="182.41667" transform="scale(1.93548,1.93548)" width="2.8" height="2.8"/><rect x="483.1" y="159.81667" transform="scale(1.93548,1.93548)" width="2.8" height="2.8"/><rect x="490.6" y="182.41667" transform="scale(1.93548,1.93548)" width="2.8" height="2.8"/><rect x="490.6" y="178.71667" transform="scale(1.93548,1.93548)" width="2.8" height="2.8"/><rect x="490.6" y="174.91667" transform="scale(1.93548,1.93548)" width="2.8" height="2.8"/><rect x="490.6" y="171.11667" transform="scale(1.93548,1.93548)" width="2.8" height="2.8"/><rect x="490.6" y="167.41667" transform="scale(1.93548,1.93548)" width="2.8" height="2.8"/><rect x="490.6" y="163.61667" transform="scale(1.93548,1.93548)" width="2.8" height="2.8"/><rect x="490.6" y="159.81667" transform="scale(1.93548,1.93548)" width="2.8" height="2.8"/><rect x="494.3" y="167.41667" transform="scale(1.93548,1.93548)" width="2.8" height="2.8"/><rect x="498.1" y="171.11667" transform="scale(1.93548,1.93548)" width="2.8" height="2.8"/><rect x="501.8" y="174.91667" transform="scale(1.93548,1.93548)" width="2.8" height="2.8"/><rect x="505.6" y="182.41667" transform="scale(1.93548,1.93548)" width="2.8" height="2.8"/><rect x="505.6" y="178.71667" transform="scale(1.93548,1.93548)" width="2.8" height="2.8"/><rect x="505.6" y="174.91667" transform="scale(1.93548,1.93548)" width="2.8" height="2.8"/><rect x="505.6" y="171.11667" transform="scale(1.93548,1.93548)" width="2.8" height="2.8"/><rect x="505.6" y="167.41667" transform="scale(1.93548,1.93548)" width="2.8" height="2.8"/><rect x="505.6" y="163.61667" transform="scale(1.93548,1.93548)" width="2.8" height="2.8"/><rect x="505.6" y="159.81667" transform="scale(1.93548,1.93548)" width="2.8" height="2.8"/><rect x="513.1" y="182.41667" transform="scale(1.93548,1.93548)" width="2.8" height="2.8"/><rect x="513.1" y="178.71667" transform="scale(1.93548,1.93548)" width="2.8" height="2.8"/><rect x="513.1" y="174.91667" transform="scale(1.93548,1.93548)" width="2.8" height="2.8"/><rect x="513.1" y="171.11667" transform="scale(1.93548,1.93548)" width="2.8" height="2.8"/><rect x="513.1" y="167.41667" transform="scale(1.93548,1.93548)" width="2.8" height="2.8"/><rect x="513.1" y="163.61667" transform="scale(1.93548,1.93548)" width="2.8" height="2.8"/><rect x="513.1" y="159.81667" transform="scale(1.93548,1.93548)" width="2.8" height="2.8"/><rect x="516.8" y="182.41667" transform="scale(1.93548,1.93548)" width="2.8" height="2.8"/><rect x="516.8" y="159.81667" transform="scale(1.93548,1.93548)" width="2.8" height="2.8"/><rect x="520.6" y="182.41667" transform="scale(1.93548,1.93548)" width="2.8" height="2.8"/><rect x="520.6" y="159.81667" transform="scale(1.93548,1.93548)" width="2.8" height="2.8"/><rect x="524.3" y="182.41667" transform="scale(1.93548,1.93548)" width="2.8" height="2.8"/><rect x="524.3" y="159.81667" transform="scale(1.93548,1.93548)" width="2.8" height="2.8"/><rect x="528.1" y="180.61667" transform="scale(1.93548,1.93548)" width="2.8" height="2.8"/><rect x="528.1" y="176.81667" transform="scale(1.93548,1.93548)" width="2.8" height="2.8"/><rect x="528.1" y="173.01667" transform="scale(1.93548,1.93548)" width="2.8" height="2.8"/><rect x="528.1" y="169.21667" transform="scale(1.93548,1.93548)" width="2.8" height="2.8"/><rect x="528.1" y="165.51667" transform="scale(1.93548,1.93548)" width="2.8" height="2.8"/><rect x="528.1" y="161.71667" transform="scale(1.93548,1.93548)" width="2.8" height="2.8"/><rect x="558.1" y="182.41667" transform="scale(1.93548,1.93548)" width="2.8" height="2.8"/><rect x="558.1" y="178.71667" transform="scale(1.93548,1.93548)" width="2.8" height="2.8"/><rect x="558.1" y="174.91667" transform="scale(1.93548,1.93548)" width="2.8" height="2.8"/><rect x="558.1" y="171.11667" transform="scale(1.93548,1.93548)" width="2.8" height="2.8"/><rect x="558.1" y="167.41667" transform="scale(1.93548,1.93548)" width="2.8" height="2.8"/><rect x="558.1" y="163.61667" transform="scale(1.93548,1.93548)" width="2.8" height="2.8"/><rect x="558.1" y="159.81667" transform="scale(1.93548,1.93548)" width="2.8" height="2.8"/><rect x="561.8" y="171.11667" transform="scale(1.93548,1.93548)" width="2.8" height="2.8"/><rect x="565.5" y="171.11667" transform="scale(1.93548,1.93548)" width="2.8" height="2.8"/><rect x="569.3" y="171.11667" transform="scale(1.93548,1.93548)" width="2.8" height="2.8"/><rect x="573" y="182.41667" transform="scale(1.93548,1.93548)" width="2.8" height="2.8"/><rect x="573" y="178.71667" transform="scale(1.93548,1.93548)" width="2.8" height="2.8"/><rect x="573" y="174.91667" transform="scale(1.93548,1.93548)" width="2.8" height="2.8"/><rect x="573" y="171.11667" transform="scale(1.93548,1.93548)" width="2.8" height="2.8"/><rect x="573" y="167.41667" transform="scale(1.93548,1.93548)" width="2.8" height="2.8"/><rect x="573" y="163.61667" transform="scale(1.93548,1.93548)" width="2.8" height="2.8"/><rect x="573" y="159.81667" transform="scale(1.93548,1.93548)" width="2.8" height="2.8"/><rect x="580.5" y="182.41667" transform="scale(1.93548,1.93548)" width="2.8" height="2.8"/><rect x="580.5" y="178.71667" transform="scale(1.93548,1.93548)" width="2.8" height="2.8"/><rect x="580.5" y="174.91667" transform="scale(1.93548,1.93548)" width="2.8" height="2.8"/><rect x="580.5" y="171.11667" transform="scale(1.93548,1.93548)" width="2.8" height="2.8"/><rect x="580.5" y="167.41667" transform="scale(1.93548,1.93548)" width="2.8" height="2.8"/><rect x="580.5" y="163.61667" transform="scale(1.93548,1.93548)" width="2.8" height="2.8"/><rect x="584.3" y="173.01667" transform="scale(1.93548,1.93548)" width="2.8" height="2.8"/><rect x="584.3" y="160.81667" transform="scale(1.93548,1.93548)" width="2.8" height="2.8"/><rect x="588" y="173.01667" transform="scale(1.93548,1.93548)" width="2.8" height="2.8"/><rect x="588" y="159.81667" transform="scale(1.93548,1.93548)" width="2.8" height="2.8"/><rect x="591.8" y="173.01667" transform="scale(1.93548,1.93548)" width="2.8" height="2.8"/><rect x="591.8" y="160.81667" transform="scale(1.93548,1.93548)" width="2.8" height="2.8"/><rect x="595.5" y="182.41667" transform="scale(1.93548,1.93548)" width="2.8" height="2.8"/><rect x="595.5" y="178.71667" transform="scale(1.93548,1.93548)" width="2.8" height="2.8"/><rect x="595.5" y="174.91667" transform="scale(1.93548,1.93548)" width="2.8" height="2.8"/><rect x="595.5" y="171.11667" transform="scale(1.93548,1.93548)" width="2.8" height="2.8"/><rect x="595.5" y="167.41667" transform="scale(1.93548,1.93548)" width="2.8" height="2.8"/><rect x="595.5" y="163.61667" transform="scale(1.93548,1.93548)" width="2.8" height="2.8"/><rect x="603" y="180.61667" transform="scale(1.93548,1.93548)" width="2.8" height="2.8"/><rect x="603" y="176.81667" transform="scale(1.93548,1.93548)" width="2.8" height="2.8"/><rect x="603" y="173.01667" transform="scale(1.93548,1.93548)" width="2.8" height="2.8"/><rect x="603" y="169.21667" transform="scale(1.93548,1.93548)" width="2.8" height="2.8"/><rect x="603" y="165.51667" transform="scale(1.93548,1.93548)" width="2.8" height="2.8"/><rect x="603" y="161.71667" transform="scale(1.93548,1.93548)" width="2.8" height="2.8"/><rect x="606.8" y="182.41667" transform="scale(1.93548,1.93548)" width="2.8" height="2.8"/><rect x="606.8" y="159.81667" transform="scale(1.93548,1.93548)" width="2.8" height="2.8"/><rect x="610.5" y="182.41667" transform="scale(1.93548,1.93548)" width="2.8" height="2.8"/><rect x="610.5" y="159.81667" transform="scale(1.93548,1.93548)" width="2.8" height="2.8"/><rect x="614.3" y="182.41667" transform="scale(1.93548,1.93548)" width="2.8" height="2.8"/><rect x="614.3" y="159.81667" transform="scale(1.93548,1.93548)" width="2.8" height="2.8"/><rect x="618" y="180.61667" transform="scale(1.93548,1.93548)" width="2.8" height="2.8"/><rect x="618" y="161.71667" transform="scale(1.93548,1.93548)" width="2.8" height="2.8"/><rect x="625.5" y="182.41667" transform="scale(1.93548,1.93548)" width="2.8" height="2.8"/><rect x="625.5" y="178.71667" transform="scale(1.93548,1.93548)" width="2.8" height="2.8"/><rect x="625.5" y="174.91667" transform="scale(1.93548,1.93548)" width="2.8" height="2.8"/><rect x="625.5" y="171.11667" transform="scale(1.93548,1.93548)" width="2.8" height="2.8"/><rect x="625.5" y="167.41667" transform="scale(1.93548,1.93548)" width="2.8" height="2.8"/><rect x="625.5" y="163.61667" transform="scale(1.93548,1.93548)" width="2.8" height="2.8"/><rect x="625.5" y="159.81667" transform="scale(1.93548,1.93548)" width="2.8" height="2.8"/><rect x="629.3" y="171.11667" transform="scale(1.93548,1.93548)" width="2.8" height="2.8"/><rect x="633" y="174.91667" transform="scale(1.93548,1.93548)" width="2.8" height="2.8"/><rect x="633" y="167.41667" transform="scale(1.93548,1.93548)" width="2.8" height="2.8"/><rect x="636.8" y="178.71667" transform="scale(1.93548,1.93548)" width="2.8" height="2.8"/><rect x="636.8" y="163.61667" transform="scale(1.93548,1.93548)" width="2.8" height="2.8"/><rect x="640.5" y="182.41667" transform="scale(1.93548,1.93548)" width="2.8" height="2.8"/><rect x="640.5" y="159.81667" transform="scale(1.93548,1.93548)" width="2.8" height="2.8"/><rect x="648" y="159.81667" transform="scale(1.93548,1.93548)" width="2.8" height="2.8"/><rect x="651.8" y="159.81667" transform="scale(1.93548,1.93548)" width="2.8" height="2.8"/><rect x="655.5" y="182.41667" transform="scale(1.93548,1.93548)" width="2.8" height="2.8"/><rect x="655.5" y="178.71667" transform="scale(1.93548,1.93548)" width="2.8" height="2.8"/><rect x="655.5" y="174.91667" transform="scale(1.93548,1.93548)" width="2.8" height="2.8"/><rect x="655.5" y="171.11667" transform="scale(1.93548,1.93548)" width="2.8" height="2.8"/><rect x="655.5" y="167.41667" transform="scale(1.93548,1.93548)" width="2.8" height="2.8"/><rect x="655.5" y="163.61667" transform="scale(1.93548,1.93548)" width="2.8" height="2.8"/><rect x="655.5" y="159.81667" transform="scale(1.93548,1.93548)" width="2.8" height="2.8"/><rect x="659.2" y="159.81667" transform="scale(1.93548,1.93548)" width="2.8" height="2.8"/><rect x="663" y="159.81667" transform="scale(1.93548,1.93548)" width="2.8" height="2.8"/></g></g><g fill="#4cad37"><path d="M791.40761,446.04967h-16.82697v-27.09677h6.10462v21.9434h10.72234z"/><path d="M802.66469,432.33505v0l-0.66495,2.49357h5.78138l-0.62801,-2.49357c-0.38789,-1.36069 -0.76038,-2.80142 -1.11749,-4.32218c-0.36326,-1.52693 -0.72344,-2.99536 -1.08055,-4.4053v0h-0.16624c-0.33248,1.44073 -0.67419,2.91532 -1.02513,4.42377c-0.34479,1.50845 -0.71113,2.94303 -1.09902,4.30371zM799.09057,446.04967h-6.23392l8.47813,-27.09677h7.36064l8.47813,27.09677h-6.48328l-1.66238,-6.44634h-8.27495z"/><path d="M830.62867,446.04967h-10.05739v-27.09677h9.27238c1.40994,0 2.7183,0.10467 3.92506,0.314c1.20676,0.20318 2.2596,0.56952 3.15852,1.09902c0.89892,0.52334 1.60389,1.216 2.11492,2.07797c0.51718,0.85582 0.77578,1.93636 0.77578,3.24164v0c0,0.60954 -0.08312,1.21908 -0.24936,1.82862c-0.16624,0.60954 -0.40328,1.17598 -0.71113,1.69932c-0.30169,0.5295 -0.66803,1.00051 -1.09902,1.41302c-0.43099,0.41867 -0.92354,0.72344 -1.47767,0.91431v0v0.16624c0.69574,0.16624 1.33298,0.42483 1.91174,0.77578c0.58491,0.34479 1.09902,0.77886 1.54232,1.3022c0.4433,0.5295 0.78809,1.14827 1.03437,1.85632c0.25244,0.70189 0.37865,1.51153 0.37865,2.42892v0c0,1.38532 -0.27091,2.57669 -0.81272,3.57411c-0.54181,0.99743 -1.28988,1.82246 -2.24421,2.4751c-0.95433,0.64648 -2.06874,1.1298 -3.34323,1.44996c-1.27449,0.32016 -2.64749,0.48024 -4.11901,0.48024zM826.68514,423.69068v6.10462h2.86299c1.49614,0 2.58284,-0.28938 3.26011,-0.86813c0.68342,-0.58491 1.02513,-1.36069 1.02513,-2.32733v0c0,-1.05284 -0.34787,-1.80091 -1.0436,-2.24421c-0.68958,-0.4433 -1.75473,-0.66495 -3.19546,-0.66495v0zM826.68514,434.3299v6.98199h3.44482c3.35554,0 5.03331,-1.21908 5.03331,-3.65723v0c0,-1.19445 -0.41559,-2.04719 -1.24678,-2.55822c-0.83119,-0.51103 -2.09337,-0.76654 -3.78653,-0.76654v0z"/><path d="M849.20021,433.08312v0c-1.05284,0 -1.93328,-0.36634 -2.64134,-1.09902c-0.70189,-0.73884 -1.05284,-1.64699 -1.05284,-2.72445v0c0,-1.10825 0.35095,-2.02872 1.05284,-2.7614c0.70805,-0.73884 1.5885,-1.10825 2.64134,-1.10825v0c1.05284,0 1.93328,0.36942 2.64134,1.10825c0.70805,0.73268 1.06208,1.65314 1.06208,2.7614v0c0,1.07747 -0.35403,1.98562 -1.06208,2.72445c-0.70805,0.73268 -1.5885,1.09902 -2.64134,1.09902zM849.20021,446.54839v0c-1.05284,0 -1.93328,-0.36634 -2.64134,-1.09902c-0.70189,-0.73884 -1.05284,-1.64699 -1.05284,-2.72445v0c0,-1.10825 0.35095,-2.02872 1.05284,-2.7614c0.70805,-0.73884 1.5885,-1.10825 2.64134,-1.10825v0c1.05284,0 1.93328,0.36942 2.64134,1.10825c0.70805,0.73268 1.06208,1.65314 1.06208,2.7614v0c0,1.07747 -0.35403,1.98562 -1.06208,2.72445c-0.70805,0.73268 -1.5885,1.09902 -2.64134,1.09902z"/><path d=""/><path d="M873.3398,446.04967h-5.48585v-27.09677h6.68646l4.36836,12.05225c0.27706,0.8004 0.53873,1.62544 0.78501,2.4751c0.25244,0.8435 0.51718,1.68085 0.79425,2.51204v0h0.16624c0.27706,-0.83119 0.53258,-1.66854 0.76654,-2.51204c0.23396,-0.84966 0.48948,-1.67469 0.76654,-2.4751v0l4.28524,-12.05225h6.64952v27.09677h-5.56897v-9.93733c0,-0.66495 0.02771,-1.39763 0.08312,-2.19803c0.05541,-0.80656 0.12314,-1.6162 0.20318,-2.42892c0.0862,-0.81888 0.16932,-1.62236 0.24936,-2.41045c0.0862,-0.79425 0.16932,-1.52385 0.24936,-2.1888v0h-0.16624l-2.19803,6.44634l-3.86965,10.34369h-3.3617l-3.86965,-10.34369l-2.16109,-6.44634h-0.16624c0.0862,0.66495 0.16932,1.39455 0.24936,2.1888c0.0862,0.78809 0.16932,1.59157 0.24936,2.41045c0.0862,0.81272 0.157,1.62236 0.21242,2.42892c0.05541,0.8004 0.08312,1.53308 0.08312,2.19803v0z"/><path d="M910.65004,446.54839v0c-3.51562,0 -6.20314,-1.04053 -8.06254,-3.12158c-1.85324,-2.0749 -2.77987,-5.38426 -2.77987,-9.9281v0v-14.54581h6.1508v15.16459c0,2.65981 0.4002,4.51613 1.20061,5.56897c0.80656,1.05284 1.97023,1.57926 3.491,1.57926v0c1.52693,0 2.70598,-0.52642 3.53717,-1.57926c0.83119,-1.05284 1.24678,-2.90916 1.24678,-5.56897v0v-15.16459h5.90144v14.54581c0,4.54384 -0.90815,7.8532 -2.72445,9.9281c-1.8163,2.08105 -4.46995,3.12158 -7.96095,3.12158zM905.95844,416.95804v0c-0.86197,0 -1.56387,-0.27706 -2.10568,-0.83119c-0.53566,-0.55413 -0.80348,-1.24678 -0.80348,-2.07797v0c0,-0.83119 0.26783,-1.52385 0.80348,-2.07797c0.54181,-0.55413 1.24371,-0.83119 2.10568,-0.83119v0c0.85582,0 1.55463,0.27706 2.09644,0.83119c0.54181,0.55413 0.81272,1.24678 0.81272,2.07797v0c0,0.83119 -0.27091,1.52385 -0.81272,2.07797c-0.54181,0.55413 -1.24063,0.83119 -2.09644,0.83119zM915.18464,416.95804v0c-0.86197,0 -1.56387,-0.27706 -2.10568,-0.83119c-0.53566,-0.55413 -0.80348,-1.24678 -0.80348,-2.07797v0c0,-0.83119 0.26783,-1.52385 0.80348,-2.07797c0.54181,-0.55413 1.24371,-0.83119 2.10568,-0.83119v0c0.85582,0 1.55463,0.27706 2.09644,0.83119c0.54181,0.55413 0.81272,1.24678 0.81272,2.07797v0c0,0.83119 -0.27091,1.52385 -0.81272,2.07797c-0.54181,0.55413 -1.24063,0.83119 -2.09644,0.83119z"/><path d="M933.87625,446.04967h-5.81833v-27.09677h6.2801l7.06511,13.46527l2.65981,5.98456h0.16624c-0.14161,-1.44073 -0.30169,-3.04769 -0.48024,-4.8209c-0.17855,-1.7732 -0.26783,-3.46329 -0.26783,-5.07026v0v-9.55868h5.81833v27.09677h-6.2801l-7.06511,-13.51145l-2.65981,-5.90144h-0.16624c0.14161,1.49614 0.30169,3.10311 0.48024,4.8209c0.17855,1.71779 0.26783,3.38017 0.26783,4.98714v0z"/><path d="M964.41691,446.54839v0c-1.7732,0 -3.54025,-0.32632 -5.30114,-0.97896c-1.75473,-0.65264 -3.32476,-1.62852 -4.71007,-2.92763v0l3.491,-4.20212c0.96664,0.83119 2.03795,1.51153 3.21393,2.04103c1.18214,0.52334 2.33964,0.78501 3.47252,0.78501v0c1.27449,0 2.22266,-0.23396 2.84451,-0.70189c0.62801,-0.47409 0.94201,-1.11133 0.94201,-1.91174v0c0,-0.41867 -0.09235,-0.77886 -0.27706,-1.08055c-0.17855,-0.30785 -0.44022,-0.57875 -0.78501,-0.81272c-0.34479,-0.23396 -0.76038,-0.45561 -1.24678,-0.66495c-0.4864,-0.20934 -1.01898,-0.43714 -1.59773,-0.68342v0l-3.53717,-1.49614c-0.68958,-0.27706 -1.36069,-0.63725 -2.01333,-1.08055c-0.65264,-0.4433 -1.23447,-0.96356 -1.7455,-1.56079c-0.51103,-0.59722 -0.92047,-1.28988 -1.22831,-2.07797c-0.30169,-0.78809 -0.45254,-1.68085 -0.45254,-2.67828v0c0,-1.10825 0.23396,-2.15494 0.70189,-3.14005c0.47409,-0.98511 1.13904,-1.84401 1.99485,-2.57669c0.86197,-0.73268 1.88095,-1.30835 3.05693,-1.72703c1.17598,-0.41252 2.47202,-0.61877 3.88812,-0.61877v0c1.57618,0 3.13389,0.30477 4.67313,0.91431c1.53924,0.60954 2.89069,1.49614 4.05436,2.65981v0l-3.12158,3.86041c-0.8866,-0.68958 -1.7732,-1.22216 -2.65981,-1.59773c-0.8866,-0.37557 -1.86864,-0.56336 -2.9461,-0.56336v0c-1.05284,0 -1.89326,0.21549 -2.52127,0.64648c-0.62185,0.43099 -0.93278,1.03437 -0.93278,1.81015v0c0,0.41252 0.10467,0.76654 0.314,1.06208c0.20934,0.28938 0.49871,0.55105 0.86813,0.78501c0.37557,0.23396 0.81272,0.45561 1.31143,0.66495c0.49871,0.20934 1.04053,0.43714 1.62544,0.68342v0l3.491,1.41302c1.66238,0.66495 2.97073,1.57926 3.92506,2.74292c0.95433,1.16367 1.43149,2.7029 1.43149,4.61772v0c0,1.13288 -0.22781,2.20727 -0.68342,3.22317c-0.45561,1.00974 -1.12057,1.89634 -1.99485,2.65981c-0.87429,0.75731 -1.94868,1.36684 -3.22317,1.82862c-1.27449,0.45561 -2.71522,0.68342 -4.32218,0.68342z"/><path d="M990.30292,446.04967h-6.1508v-21.9434h-7.43453v-5.15337h21.02909v5.15337h-7.44376z"/><path d="M1019.80922,446.04967h-17.37186v-27.09677h16.95626v5.15337h-10.85164v5.43967h9.2262v5.11643h-9.2262v6.23392h11.26723z"/><path d="M1031.76819,446.04967h-6.10462v-27.09677h9.76186c1.44073,0 2.79218,0.13853 4.05436,0.41559c1.26218,0.27706 2.36427,0.74191 3.30629,1.39455c0.94201,0.64648 1.69009,1.51153 2.24421,2.59516c0.55413,1.07747 0.83119,2.41968 0.83119,4.02665v0c0,1.99485 -0.43714,3.63876 -1.31143,4.93172c-0.87429,1.2868 -2.04411,2.24729 -3.50947,2.88146v0l6.1508,10.85164h-6.86193l-5.19032,-9.77109h-3.37093zM1031.76819,423.81074v7.61h3.15852c1.60697,0 2.8322,-0.33863 3.6757,-1.0159c0.84966,-0.68342 1.27449,-1.69009 1.27449,-3.01999v0c0,-1.3299 -0.42483,-2.25653 -1.27449,-2.77987c-0.8435,-0.5295 -2.06874,-0.79425 -3.6757,-0.79425v0z"/></g></g></svg>