<svg version="1.1" xmlns="http://www.w3.org/2000/svg" xmlns:xlink="http://www.w3.org/1999/xlink" width="480" height="480" viewBox="120,142,480,480"><g fill="none" fill-rule="nonzero" stroke="none" stroke-width="1" stroke-linecap="butt" stroke-linejoin="miter" stroke-miterlimit="10" stroke-dasharray="" stroke-dashoffset="0" font-family="none" font-weight="none" font-size="none" text-anchor="none" style="mix-blend-mode: normal"><g id="Ebene_1"><path d="M250.90909,578.36364v0v0v-43.63636h-43.63636v-43.63636h-43.63636v-130.90909h43.63636v-43.63636h305.45455v43.63636h43.63636v130.90909h-43.63636v43.63636h-43.63636v43.63636z" fill="#ffffff"/><g fill="#000000"><rect x="33.25" y="64.77917" transform="scale(6.23377,6.23377)" width="7" height="7"/><rect x="75.25" y="64.77917" transform="scale(6.23377,6.23377)" width="7" height="7"/><path d="M381.81818,491.09091h-43.63636v-43.63636h-43.63636v87.27273h130.90909v-87.27273h-43.63636z"/></g><path d="M556.36364,185.63636v-43.63636h-87.27273v43.63636h-43.63636v43.63636h-130.90909v-43.63636h-43.63636v-43.63636h-87.27273v43.63636h-43.63636v349.09091h43.63636v43.63636h43.63636v43.63636h305.45455v-43.63636h43.63636v-43.63636h43.63636v-349.09091zM556.36364,491.09091h-43.63636v43.63636h-43.63636v43.63636h-218.18182v-43.63636h-43.63636v-43.63636h-43.63636v-130.90909h43.63636v-43.63636h305.45455v43.63636h43.63636z" fill="#4cad37"/></g></g></svg>